<svg width="21" height="21" viewBox="0 0 21 21" fill="none" xmlns="http://www.w3.org/2000/svg">
<g clip-path="url(#clip0_196_280)">
<path d="M17.7337 10.2668C16.6837 9.15852 15.2837 8.40018 13.8253 8.10852C13.1837 7.93352 12.542 7.81685 11.9003 7.75852C13.5337 5.83352 13.242 2.91685 11.317 1.28352C9.39199 -0.349817 6.47532 -0.0581509 4.84199 1.86685C3.20866 3.79185 3.50032 6.70852 5.42532 8.34185C5.77532 8.63352 6.12532 8.86685 6.47533 8.98351V10.2668L5.54199 9.39185C4.72532 8.57518 3.38366 8.57518 2.50866 9.39185C1.69199 10.2085 1.63366 11.4918 2.45032 12.3085L5.13366 15.4585C5.25032 16.2752 5.54199 17.0335 5.95032 17.7335C6.24199 18.2585 6.65032 18.7835 7.05866 19.1918V20.3002C7.05866 20.6502 7.29199 20.8835 7.64199 20.8835H15.5753C15.867 20.8835 16.1587 20.5918 16.1587 20.3002V18.7835C17.267 17.4418 17.8503 15.7502 17.8503 14.0585V10.6752C17.9087 10.4418 17.8503 10.3252 17.7337 10.2668ZM4.90032 4.78352C4.90032 2.85852 6.47532 1.34185 8.40032 1.40018C10.3253 1.40018 11.842 2.97518 11.7837 4.90018C11.7837 5.95018 11.317 6.88352 10.5003 7.52518V4.60852C10.4705 4.10298 10.2485 3.62799 9.87973 3.28092C9.51096 2.93384 9.0234 2.74097 8.51699 2.74185C7.46699 2.68352 6.53366 3.55852 6.53366 4.60852V7.64185C5.54199 7.05852 4.95866 5.95018 4.90032 4.78352ZM16.742 14.0002C16.8003 15.5168 16.2753 16.9752 15.2837 18.1418C15.167 18.2585 15.0503 18.3752 15.0503 18.5502V19.7752H8.28366V18.9585C8.28366 18.7835 8.16699 18.6085 8.05032 18.4918C7.64199 18.1418 7.29199 17.7335 7.00032 17.2085C6.65032 16.6252 6.41699 15.9252 6.30032 15.2252C6.30032 15.1085 6.24199 14.9918 6.18366 14.8752L3.38366 11.5502C3.20866 11.3752 3.09199 11.1418 3.09199 10.8502C3.09199 10.6168 3.20866 10.3252 3.38366 10.1502C3.79199 9.80018 4.37532 9.80018 4.78366 10.1502L6.47533 11.8418V13.5918L7.58366 13.0085V4.60852C7.64199 4.20018 7.99199 3.85018 8.45866 3.90852C8.86699 3.90852 9.27532 4.20018 9.27532 4.60852V11.3168L10.442 11.5502V8.86685C10.5003 8.80852 10.5587 8.80852 10.617 8.75018C11.0253 8.75018 11.4337 8.80852 11.842 8.86685V11.8418L12.7753 12.0168V8.98351L13.4753 9.15851C13.767 9.21685 14.0587 9.33352 14.3503 9.45018V12.3668L15.2837 12.5418V9.85852C15.8087 10.0918 16.2753 10.4418 16.6837 10.8502L16.742 14.0002Z" fill="#00529B"/>
</g>
<defs>
<clipPath id="clip0_196_280">
<rect width="21" height="21" fill="white"/>
</clipPath>
</defs>
</svg>
