<svg width="29" height="29" viewBox="0 0 29 29" fill="none" xmlns="http://www.w3.org/2000/svg">
<path d="M14.5001 28.875H14.5C12.5104 28.875 10.6424 28.4973 8.89455 27.7426C7.14425 26.9869 5.62298 25.9627 4.3296 24.6703C3.03627 23.3779 2.01216 21.8567 1.25739 20.1055C0.503643 18.3567 0.125961 16.4886 0.125002 14.4999C0.124043 12.5114 0.501709 10.6434 1.25735 8.89458C2.01407 7.14328 3.03822 5.62201 4.32967 4.3296C5.62107 3.03725 7.14229 2.01312 8.8945 1.25738C10.6443 0.502671 12.5124 0.125 14.5 0.125C16.4876 0.125 18.3557 0.502671 20.1055 1.25738C21.8577 2.01312 23.3789 3.03725 24.6703 4.3296C25.9618 5.62202 26.9864 7.14331 27.7441 8.89463C28.5007 10.6434 28.8779 12.5113 28.875 14.4998C28.8721 16.4885 28.4944 18.3567 27.7425 20.1056C26.9897 21.8568 25.9657 23.3779 24.6704 24.6703C23.3751 25.9628 21.8537 26.9874 20.1053 27.7441C18.3595 28.4997 16.4916 28.8769 14.5001 28.875ZM11 8.20396L20.7938 14.5L11 20.796V8.20396ZM14.5 26.225C17.7708 26.225 20.5457 25.0886 22.8171 22.8171C25.0886 20.5457 26.225 17.7708 26.225 14.5C26.225 11.2292 25.0886 8.45429 22.8171 6.18286C20.5457 3.91143 17.7708 2.775 14.5 2.775C11.2292 2.775 8.45429 3.91143 6.18286 6.18286C3.91143 8.45429 2.775 11.2292 2.775 14.5C2.775 17.7708 3.91143 20.5457 6.18286 22.8171C8.45429 25.0886 11.2292 26.225 14.5 26.225Z" fill="white" stroke="#5436AB" stroke-width="0.25"/>
</svg>
